<svg width="221" height="259" viewBox="0 0 221 259" fill="none" xmlns="http://www.w3.org/2000/svg">
<path d="M110.5 237.686C108.045 237.686 105.706 237.147 103.483 236.068C101.255 234.988 99.2198 233.46 97.3782 231.481L23.4813 144.878C21.7931 142.72 20.4886 140.335 19.5678 137.723C18.6469 135.119 18.1865 132.378 18.1865 129.5C18.1865 126.622 18.6469 123.834 19.5678 121.136C20.4886 118.438 21.7931 116.1 23.4813 114.122L97.3782 27.5187C99.2198 25.3604 101.255 23.7848 103.483 22.7919C105.706 21.8063 108.045 21.3135 110.5 21.3135C112.956 21.3135 115.334 21.8063 117.637 22.7919C119.939 23.7848 121.934 25.3604 123.622 27.5187L197.519 114.122C199.36 116.1 200.705 118.438 201.552 121.136C202.393 123.834 202.814 126.622 202.814 129.5C202.814 132.378 202.393 135.119 201.552 137.723C200.705 140.335 199.36 142.72 197.519 144.878L123.622 231.481C121.934 233.46 119.939 234.988 117.637 236.068C115.334 237.147 112.956 237.686 110.5 237.686ZM101.292 140.292H119.708V75.5416H101.292V140.292ZM110.5 172.667C113.109 172.667 115.298 171.631 117.066 169.559C118.827 167.494 119.708 164.933 119.708 161.875C119.708 158.817 118.827 156.252 117.066 154.18C115.298 152.116 113.109 151.083 110.5 151.083C107.891 151.083 105.706 152.116 103.944 154.18C102.176 156.252 101.292 158.817 101.292 161.875C101.292 164.933 102.176 167.494 103.944 169.559C105.706 171.631 107.891 172.667 110.5 172.667Z" fill="black" fill-opacity="0.07"/>
</svg>
