<svg width="18" height="18" viewBox="0 0 18 18" fill="none" xmlns="http://www.w3.org/2000/svg">
<path d="M9 14C9.41667 14 9.771 13.854 10.063 13.562C10.355 13.27 10.5007 12.916 10.5 12.5V10.5H12.5C12.9167 10.5 13.271 10.354 13.563 10.062C13.855 9.77 14.0007 9.416 14 9C14 8.58334 13.854 8.229 13.562 7.937C13.27 7.645 12.916 7.49934 12.5 7.5H10.5V5.5C10.5 5.08334 10.354 4.729 10.062 4.437C9.77 4.145 9.416 3.99934 9 4C8.58334 4 8.229 4.146 7.937 4.438C7.645 4.73 7.49934 5.084 7.5 5.5V7.5H5.5C5.08334 7.5 4.729 7.646 4.437 7.938C4.145 8.23 3.99934 8.584 4 9C4 9.41667 4.146 9.771 4.438 10.063C4.73 10.355 5.084 10.5007 5.5 10.5H7.5V12.5C7.5 12.9167 7.646 13.271 7.938 13.563C8.23 13.855 8.584 14.0007 9 14ZM2 18C1.45 18 0.979002 17.804 0.587002 17.412C0.195002 17.02 -0.000664969 16.5493 1.69779e-06 16V2C1.69779e-06 1.45 0.196002 0.979002 0.588002 0.587002C0.980002 0.195002 1.45067 -0.000664969 2 1.69779e-06H16C16.55 1.69779e-06 17.021 0.196002 17.413 0.588002C17.805 0.980002 18.0007 1.45067 18 2V16C18 16.55 17.804 17.021 17.412 17.413C17.02 17.805 16.5493 18.0007 16 18H2ZM2 16H16V2H2V16Z" fill="white"/>
</svg>
