<svg width="17" height="17" viewBox="0 0 30 30" fill="none" xmlns="http://www.w3.org/2000/svg">
<path d="M3.1425 22.6744H5.54457C5.70858 22.6744 5.86234 22.7477 5.96484 22.8768C6.20403 23.1733 6.46029 23.4593 6.73023 23.7314C7.83425 24.8596 9.14197 25.7588 10.5811 26.3791C12.072 27.022 13.6745 27.3518 15.2929 27.3488C16.9296 27.3488 18.5151 27.0209 20.0048 26.3791C21.4439 25.7588 22.7517 24.8596 23.8557 23.7314C24.9617 22.607 25.8436 21.2742 26.4525 19.807C27.0846 18.2861 27.4024 16.671 27.4024 15C27.4024 13.3291 27.0812 11.714 26.4525 10.1931C25.8443 8.72446 24.9696 7.40237 23.8557 6.26865C22.7418 5.13493 21.4468 4.24191 20.0048 3.62098C18.5151 2.97912 16.9296 2.65121 15.2929 2.65121C13.6563 2.65121 12.0708 2.97563 10.5811 3.62098C9.13914 4.24191 7.84413 5.13493 6.73023 6.26865C6.46029 6.54423 6.20744 6.83027 5.96484 7.1233C5.86234 7.25237 5.70516 7.32562 5.54457 7.32562H3.1425C2.92723 7.32562 2.79397 7.08144 2.91356 6.89655C5.53432 2.73842 10.1198 -0.0139007 15.3305 5.28092e-05C23.5174 0.020983 30.0812 6.80586 29.9992 15.1535C29.9172 23.3686 23.3636 30 15.2929 30C10.0959 30 5.5309 27.2512 2.91356 23.1035C2.79739 22.9186 2.92723 22.6744 3.1425 22.6744ZM0.10488 14.7803L4.95345 10.8733C5.13454 10.7268 5.39764 10.8593 5.39764 11.0931V13.7442H16.1267C16.277 13.7442 16.4 13.8698 16.4 14.0233V15.9768C16.4 16.1303 16.277 16.2558 16.1267 16.2558H5.39764V18.907C5.39764 19.1407 5.13112 19.2733 4.95345 19.1268L0.10488 15.2198C0.0722085 15.1937 0.0457857 15.1603 0.0276142 15.1223C0.0094427 15.0842 6.68169e-08 15.0424 6.68169e-08 15C6.68169e-08 14.9577 0.0094427 14.9159 0.0276142 14.8778C0.0457857 14.8397 0.0722085 14.8064 0.10488 14.7803Z" fill="white"/>
</svg>
