<svg width="15" height="15" viewBox="0 0 20 20" fill="none" xmlns="http://www.w3.org/2000/svg">
<path d="M2.5 18.1254C2.58209 18.1255 2.66339 18.1094 2.73921 18.078C2.81504 18.0465 2.88389 18.0004 2.9418 17.9422L17.9418 2.9422C18.0541 2.82404 18.1157 2.66669 18.1136 2.50372C18.1115 2.34074 18.0459 2.18503 17.9306 2.06978C17.8154 1.95453 17.6597 1.88886 17.4967 1.88677C17.3337 1.88468 17.1764 1.94634 17.0582 2.05861L2.0582 17.0586C1.97085 17.146 1.91138 17.2574 1.88728 17.3786C1.86319 17.4998 1.87557 17.6254 1.92285 17.7395C1.97013 17.8537 2.05019 17.9513 2.15292 18.02C2.25565 18.0887 2.37643 18.1253 2.5 18.1254ZM18.4875 7.68712C19.477 8.58947 20 9.8215 20 11.2504C20 12.6567 19.4383 13.941 18.4184 14.8672C17.4359 15.7594 16.1109 16.2504 14.6875 16.2504H7.15625C7.09441 16.2505 7.03394 16.2322 6.98251 16.1978C6.93107 16.1635 6.89098 16.1147 6.86731 16.0575C6.84363 16.0004 6.83744 15.9375 6.84952 15.8769C6.8616 15.8162 6.8914 15.7605 6.93516 15.7168L16.0594 6.59259C16.0995 6.55242 16.1497 6.52393 16.2048 6.51016C16.2598 6.4964 16.3176 6.49789 16.3719 6.51447C17.1875 6.76408 17.9141 7.16369 18.4875 7.68712ZM1.3832 15.2828C0.478125 14.5621 0 13.4922 0 12.1879C0 9.93908 1.64062 8.64962 3.42031 8.25236C3.53738 8.22568 3.64428 8.16585 3.72824 8.08002C3.8122 7.99419 3.86966 7.886 3.89375 7.76837C4.19375 6.33556 4.84883 5.10626 5.81484 4.17462C6.93921 3.09371 8.44035 2.4932 10 2.5004C11.2156 2.5004 12.3484 2.85197 13.3055 3.51994C13.3434 3.54586 13.3751 3.57982 13.3984 3.6194C13.4217 3.65898 13.4359 3.70321 13.4402 3.74893C13.4444 3.79466 13.4386 3.84075 13.423 3.88395C13.4074 3.92714 13.3825 3.96637 13.35 3.99884L1.96563 15.3832C1.91395 15.4349 1.84578 15.4669 1.77298 15.4735C1.70018 15.4801 1.62736 15.461 1.56719 15.4195C1.50391 15.3758 1.44258 15.3302 1.3832 15.2828Z" fill="#555"/>
</svg>
