<svg width="16" height="20" viewBox="0 0 16 20" fill="none" xmlns="http://www.w3.org/2000/svg">
<path d="M6.4 12.7004L8 11.5004L9.55 12.7004C9.73333 12.8337 9.925 12.8381 10.125 12.7134C10.325 12.5887 10.3833 12.4094 10.3 12.1754L9.7 10.2004L11.325 8.92539C11.5083 8.77539 11.5627 8.58372 11.488 8.35039C11.4133 8.11706 11.2507 8.00039 11 8.00039H9.1L8.45 6.02539C8.36667 5.79206 8.21667 5.67539 8 5.67539C7.78333 5.67539 7.63333 5.79206 7.55 6.02539L6.9 8.00039H5C4.75 8.00039 4.58333 8.11706 4.5 8.35039C4.41667 8.58372 4.475 8.77539 4.675 8.92539L6.25 10.2004L5.65 12.1754C5.56667 12.4087 5.625 12.5877 5.825 12.7124C6.025 12.8371 6.21667 12.8331 6.4 12.7004ZM8 19.9254H7.75C7.66667 19.9254 7.59167 19.9087 7.525 19.8754C5.34167 19.1921 3.54167 17.8377 2.125 15.8124C0.708333 13.7871 0 11.5497 0 9.10039V4.37539C0 3.95872 0.121 3.58372 0.363 3.25039C0.605 2.91706 0.917334 2.67539 1.3 2.52539L7.3 0.275391C7.53333 0.192057 7.76667 0.150391 8 0.150391C8.23333 0.150391 8.46667 0.192057 8.7 0.275391L14.7 2.52539C15.0833 2.67539 15.396 2.91706 15.638 3.25039C15.88 3.58372 16.0007 3.95872 16 4.37539V9.10039C16 11.5504 15.2917 13.7881 13.875 15.8134C12.4583 17.8387 10.6583 19.1927 8.475 19.8754C8.39167 19.9087 8.23333 19.9254 8 19.9254ZM8 17.9004C9.73333 17.3504 11.1667 16.2504 12.3 14.6004C13.4333 12.9504 14 11.1171 14 9.10039V4.37539L8 2.12539L2 4.37539V9.10039C2 11.1171 2.56667 12.9504 3.7 14.6004C4.83333 16.2504 6.26667 17.3504 8 17.9004Z" fill="white"/>
</svg>
